# xmcd
#
# Track frame offsets: 
#        150
#        22761
#        43250
#        62410
#        85002
#        103808
#        134149
#        153947
#        177529
#        205503
#        225955
#        249023
#
# Disc length: 3720 seconds
#
# Revision: 3
# Processed by: cddbd v1.5.2PL0 Copyright (c) Steve Scherf et al.
# Submitted via: ExactAudioCopy v0.99pb4
#
DISCID=8d0e860c
DTITLE=Greetje Kauffeld - My Shining Hour
DYEAR=2005
DGENRE=Jazz
TTITLE0=Happiness Is A Thing Called Love
TTITLE1=It's Only A Paper Moon
TTITLE2=A Sleepin' Bee
TTITLE3=Harold Arlen Medley (a to d)
TTITLE4=My Shining Hour
TTITLE5=Over The Rainbow
TTITLE6=That Old Black Music
TTITLE7=Ill Wind
TTITLE8=Out Of This World
TTITLE9=Last Night When We Were Young
TTITLE10=Let's Fall In Love
TTITLE11=One For My Baby
EXTD=YEAR: 2005
EXTT0=
EXTT1=
EXTT2=
EXTT3=
EXTT4=
EXTT5=
EXTT6=
EXTT7=
EXTT8=
EXTT9=
EXTT10=
EXTT11=
PLAYORDER=
